<?xml version="1.0" encoding="utf-8"?>
<!-- Generator: Adobe Illustrator 16.0.0, SVG Export Plug-In . SVG Version: 6.00 Build 0)  -->
<!DOCTYPE svg PUBLIC "-//W3C//DTD SVG 1.1//EN" "http://www.w3.org/Graphics/SVG/1.1/DTD/svg11.dtd">
<svg version="1.1" id="圖層_1" xmlns="http://www.w3.org/2000/svg" xmlns:xlink="http://www.w3.org/1999/xlink" x="0px" y="0px"
	 width="2999.5px" height="396px" viewBox="0 0 2999.5 396" enable-background="new 0 0 2999.5 396" xml:space="preserve">
<image display="none" overflow="visible" width="300" height="65" xlink:href="../../../edf環境與發展基金會/gpi資源再生綠色產品/logo/資源再生綠生產品logo_2.jpg"  transform="matrix(8.625 0 0 8.625 -51.8123 -91.0625)">
</image>
<image display="none" overflow="visible" enable-background="new    " width="564" height="136" xlink:href="../../../../素材/logo/EE5E26CA.png"  transform="matrix(2.9875 0 0 2.9875 34.9983 10.9922)">
</image>
<g>
	<path fill="#FFFFFF" d="M134.582,107.701c0-21.175,0-41.852,0-62.754c1.418-0.066,2.64-0.172,3.86-0.172
		c62.504-0.008,125.014-0.385,187.512,0.128c40.302,0.331,76.668,12.126,106.66,40.429c24.499,23.119,38.531,51.609,43.65,84.565
		c4.382,28.203,4.052,56.439-4.377,83.887c-17.354,56.506-55.631,90.409-113.475,101.79c-12.163,2.394-24.802,3.156-37.232,3.263
		c-44.125,0.379-88.255,0.149-132.383,0.14c-1.457,0-2.914-0.119-4.558-0.189c0-62.563,0-124.766,0-187.326
		c20.733,0,41.382,0,62.404,0c0,41.477,0,82.926,0,124.84c1.653,0.1,2.964,0.243,4.274,0.244
		c24.501,0.016,49.007,0.296,73.503-0.068c24.027-0.359,45.779-7.332,63.362-24.531c14.151-13.844,23.41-30.381,26.485-50.104
		c3.236-20.753,2.523-41.311-6.286-60.635c-14.748-32.354-40.366-49.876-75.759-52.996c-5.464-0.481-10.98-0.486-16.473-0.489
		c-58.63-0.032-117.259-0.02-175.89-0.02C138.156,107.701,136.445,107.701,134.582,107.701z"/>
	<path fill="#FFFFFF" d="M488.75,233.35c2.781-21.129,2.768-41.771,0.037-62.881c1.882,0,3.345,0,4.808,0
		c21.124,0,42.252,0.219,63.37-0.129c6.536-0.108,13.232-1.089,19.529-2.844c12.6-3.51,21.035-16.479,20.304-29.87
		c-0.796-14.545-10.19-26.082-23.729-28.512c-5.502-0.988-11.166-1.439-16.761-1.467c-28.747-0.141-57.496-0.089-86.245-0.022
		c-2.446,0.006-4.025-0.538-5.473-2.773c-17.277-26.659-40.576-46.158-69.944-58.358c-0.863-0.359-1.667-0.86-3.448-1.792
		c2.271,0,3.469,0,4.665,0c47.498-0.001,94.996-0.112,142.493,0.049c21.295,0.073,42.47,1.628,62.569,9.571
		c19.105,7.552,35.642,18.552,46.802,36.371c8.25,13.173,11.6,27.783,12.146,43.108c0.462,12.889,0.156,25.711-4.253,38.104
		c-3.954,11.117-10.318,20.738-17.869,29.743c2.902,2.66,5.917,5.098,8.555,7.889c12.637,13.373,18.806,29.595,20.077,47.695
		c1.561,22.209-1.864,43.47-14.689,62.222c-14.386,21.032-35.24,32.383-59.854,36.101c-15.979,2.414-32.312,3.238-48.495,3.375
		c-49.12,0.416-98.244,0.151-147.367,0.145c-1.177,0-2.353-0.104-3.62-0.717c4.013-1.869,8.077-3.639,12.031-5.627
		c24.784-12.461,44.716-30.394,59.868-53.592c1.583-2.424,3.2-3.221,6.016-3.216c32.621,0.052,65.243,0.017,97.864-0.138
		c3.962-0.02,7.98-0.578,11.869-1.391c14.771-3.096,24.012-15.293,23.771-31.065c-0.207-13.742-10.368-25.938-24.47-28.162
		c-8.341-1.315-16.894-1.64-25.358-1.739c-20.119-0.238-40.244-0.078-60.367-0.078C492.117,233.35,490.656,233.35,488.75,233.35z"/>
	<path fill="#FFFFFF" d="M59.042,120.464c20.85,0,41.33,0,62.143,0c0,79.315,0,158.572,0,238.175c-20.563,0-41.215,0-62.143,0
		C59.042,279.346,59.042,200.079,59.042,120.464z"/>
	<path fill="#FFFFFF" d="M360.688,276.464c0-49.817,0-99.011,0-148.483c0.896,0.29,1.621,0.408,2.232,0.738
		c23.204,12.534,37.263,31.526,40.62,57.943c2.073,16.304,1.517,32.466-4.521,47.959c-6.956,17.854-18.77,31.631-35.81,40.708
		C362.573,275.667,361.895,275.925,360.688,276.464z"/>
	<path fill="#FFFFFF" d="M58.877,107.291c0-20.815,0-41.397,0-62.284c20.769,0,41.436,0,62.406,0c0,20.651,0,41.322,0,62.284
		C100.659,107.291,79.979,107.291,58.877,107.291z"/>
	<g display="none">
		<path display="inline" fill="#FFFFFF" d="M1299.798,313.031c-0.578-5.453-2.645-7.883-7.709-7.293
			c-3.219,0.373-6.515,0.07-9.937,0.07c-1.246-3.699-0.976-5.926,3.554-5.598c2.413,0.175,4.853,0.03,8.161,0.03
			c-1.498-2.97-2.631-5.218-3.879-7.691c1.463-0.914,2.814-1.761,4.83-3.021c1.818,3.449,3.479,6.602,5.484,10.406
			c0.813,0,2.671,0,5.229,0c0-2.94-0.23-5.707,0.122-8.395c0.127-0.967,1.662-2.43,2.547-2.424c0.888,0.003,2.402,1.477,2.529,2.447
			c0.35,2.694,0.119,5.463,0.119,8.408c2.627,0,4.517,0,6.49,0c0.457-3.709,0.744-7.207,1.484-10.607
			c0.092-0.415,2.619-0.297,4.521-0.471c0,3.883,0,7.267,0,11.01c2.007,0.137,3.567,0.242,4.537,0.308
			c2.375-3.787,4.479-7.137,6.731-10.731c1.651,1.016,3.002,1.846,4.734,2.908c-1.377,2.44-2.626,4.649-4.438,7.852
			c2.918,0,5.246,0.156,7.549-0.035c4.021-0.334,4.922,1.488,3.634,5.604c-3.395,0-6.986,0.342-10.489-0.08
			c-5.052-0.611-7.241,1.614-7.661,6.963c5.275,0,10.538,0,15.604,0c1.588,4.19,0.064,5.254-3.395,5.185
			c-6.384-0.129-12.776-0.14-19.158,0.065c-1.26,0.041-2.479,1.269-3.719,1.947c1.289,0.793,2.548,2.215,3.867,2.273
			c5.722,0.257,11.464,0.219,17.191,0.078c3.243-0.078,4.694,0.957,3.395,5.066c-6.857,0-13.989,0.062-21.119-0.029
			c-2.752-0.033-4.1,0.72-2.787,4.147c9.109,0,18.378,0,27.904,0c0,2.04,0,3.593,0,5.61c-7.857,0-15.645,0-23.433,0
			c7.399,6.605,16.404,9.049,25.877,11.513c-1.032,1.908-1.938,3.576-3.307,6.103c-9.176-3.84-18.132-7.588-27.542-11.523
			c0,4.309,0,8.78,0,13.664c-2.104,0.109-3.642,0.191-5.823,0.311c0-4.716,0-9.039,0-13.56c-9.735,3.821-18.883,7.414-28.423,11.158
			c-1.116-2.787-1.821-4.54-2.452-6.109c9.112-3.231,18.022-6.396,26.935-9.558c-0.14-0.563-0.274-1.123-0.412-1.688
			c-8.056,0-16.106,0-24.523,0c-0.154-2.008-0.271-3.55-0.447-5.861c7.729,0,15.185,0.002,22.644,0c1.31,0,2.701,0.266,3.904-0.098
			c0.968-0.287,1.707-1.341,2.549-2.053c-0.881-0.675-1.748-1.91-2.646-1.934c-6.547-0.17-13.1-0.092-19.65-0.111
			c-0.791-0.001-1.582-0.124-2.636-0.215c-0.071-1.452-0.136-2.7-0.207-4.125c0.913-0.237,1.672-0.604,2.436-0.608
			c6.387-0.062,12.777,0.058,19.157-0.175c1.209-0.043,2.373-1.396,3.559-2.146c-1.21-0.724-2.401-2.035-3.633-2.072
			c-6.547-0.215-13.101-0.061-19.651-0.129c-3.679-0.037-3.679-0.12-3.626-4.787
			C1289.346,313.031,1294.347,313.031,1299.798,313.031z M1304.742,305.997c1.187,6.894,1.195,6.599,11.698,6.942
			c5.338,0.174,6.03-2.895,6.799-6.942C1317.005,305.997,1311.041,305.997,1304.742,305.997z"/>
		<path display="inline" fill="#FFFFFF" d="M1468.045,349.131c4.1,0.537,6.67,1.035,9.258,1.178
			c5.703,0.313,7.729-1.104,8.131-6.625c0.482-6.686,0.446-13.416,0.313-20.121c-0.021-1.017-1.786-2.854-2.766-2.867
			c-15.186-0.182-30.374-0.127-45.35-0.127c-1.405,12.269-2.753,24.021-4.187,36.507c-3.095-1.146-4.839-1.79-6.833-2.527
			c1.039-5.573,2.676-10.944,2.937-16.385c0.657-13.888,0.895-27.8,0.881-41.701c-0.007-4.412,1.363-5.535,5.614-5.479
			c16.862,0.223,33.731,0.197,50.6,0.013c3.848-0.043,5.108,1.11,5.137,4.985c0.1,13.02,0.229,13.018-12.809,13.02
			c-12.609,0-25.22-0.014-37.827,0.016c-2.056,0.004-4.491-0.52-4.438,2.914c0.055,3.521,2.625,2.696,4.579,2.703
			c15.229,0.047,30.458,0.141,45.687-0.051c4.002-0.05,5.654,1.098,5.402,5.256c-0.516,8.651-0.344,17.358-1.18,25.975
			c-0.975,10.045-11.759,15.498-20.375,10.392C1469.316,355.313,1469.157,352.15,1468.045,349.131z M1460.673,302.859
			c7.02,0,14.044,0.135,21.054-0.117c1.294-0.047,2.532-1.641,3.798-2.52c-1.147-1-2.283-2.854-3.445-2.869
			c-14.036-0.199-28.077-0.199-42.11,0.013c-1.096,0.017-2.158,2.009-3.236,3.081c1.125,0.805,2.229,2.267,3.378,2.304
			C1446.957,302.971,1453.816,302.859,1460.673,302.859z"/>
		<path display="inline" fill="#FFFFFF" d="M1316.895,160.58c-2.249,9.989-4.291,18.872-6.233,27.776
			c-0.596,2.732-0.625,5.223-4.788,5.261c-4.355,0.042-4.11-2.938-4.688-5.406c-2.204-9.47-4.248-18.977-7.326-28.367
			c0,11.001,0,22.003,0,32.897c-8.309,1.668-8.432,1.57-8.432-6.313c0-11.775,0.095-23.553-0.061-35.327
			c-0.041-3.201,0.979-4.209,4.195-4.233c9.539-0.075,9.531-0.208,11.441,9.001c1.475,7.113,2.967,14.221,5.475,21.234
			c2.088-9.97,4.178-19.943,6.26-29.881c4.688,0,8.875,0,13.345,0c0,15.396,0,30.514,0,45.587c-8.197,1.597-8.213,1.578-8.23-6.344
			c-0.02-8.011-0.061-16.025-0.113-24.036C1317.736,162.137,1317.484,161.847,1316.895,160.58z"/>
		<path display="inline" fill="#FFFFFF" d="M1258.543,224.695c0,10.512,0,21.025,0,31.871c-2.954,0-5.446,0-8.492,0
			c0-7.478,0-14.633,0-21.791c0-6.543,0.11-13.088-0.047-19.625c-0.072-2.991,0.581-4.375,4.013-4.418
			c9.704-0.115,9.721-0.279,11.729,9.25c1.476,6.977,2.894,13.963,5.389,20.949c2.078-9.904,4.153-19.807,6.267-29.875
			c4.47,0,8.657,0,13.219,0c0,15.118,0,30.063,0,45.43c-2.479,0-4.978,0-7.999,0c0-10.314,0-20.547,0-30.782
			c-0.404-0.06-0.811-0.12-1.215-0.183c-1.07,4.543-2.172,9.076-3.2,13.627c-1.079,4.776-2.186,9.554-3.092,14.365
			c-0.479,2.562-1.713,3.481-4.324,3.469c-2.661-0.012-4.089-0.586-4.671-3.549c-1.599-8.166-3.563-16.261-5.422-24.375
			c-0.345-1.515-0.839-2.992-1.266-4.488C1259.135,224.613,1258.839,224.654,1258.543,224.695z"/>
		<path display="inline" fill="#FFFFFF" d="M705.221,223.852c0,10.762,0,21.521,0,32.666c-2.803,0-5.299,0-8.418,0
			c0-4.543,0-8.912,0-13.283c0.001-9.484,0.087-18.975-0.048-28.457c-0.04-2.922,0.842-3.965,3.892-4.03
			c9.953-0.218,9.995-0.351,12.076,9.41c1.49,6.995,2.845,14.022,5.229,21.055c2.119-10.041,4.237-20.081,6.355-30.114
			c4.595,0,8.784,0,13.325,0c0,15.215,0,30.155,0,45.455c-2.558,0-4.9,0-7.711,0c0-10.889,0-21.617,0-32.347
			c-0.408-0.071-0.818-0.144-1.229-0.214c-0.897,3.668-1.854,7.324-2.688,11.007c-1.405,6.21-2.871,12.414-4.037,18.669
			c-0.521,2.771-2.003,3.316-4.442,3.289c-2.359-0.025-3.875-0.343-4.443-3.211c-1.683-8.486-3.729-16.898-5.65-25.339
			c-0.354-1.55-0.791-3.078-1.19-4.618C705.9,223.809,705.561,223.831,705.221,223.852z"/>
		<path display="inline" fill="#FFFFFF" d="M1198.796,293.396c1.47,4.861-0.076,6.512-4.85,6.277
			c-6.979-0.34-13.989-0.087-21.294-0.087c0,16.065,0,31.535,0,47.563c9.964,0,19.696,0,29.653,0c0,2.434,0,4.308,0,6.434
			c-22.438,0-44.632,0-67.128,0c0-1.982,0-3.861,0-6.273c9.865,0,19.772,0,30.017,0c0-15.979,0-31.44,0-47.724
			c-7.268,0-14.569-0.25-21.847,0.088c-4.781,0.224-6.313-1.425-4.835-6.278C1158.447,293.396,1178.492,293.396,1198.796,293.396z"
			/>
		<path display="inline" fill="#FFFFFF" d="M1397.921,193.229c-1.357,0.095-2.328,0.075-3.27,0.242
			c-5.002,0.898-7.574-0.992-9.021-6.079c-2.299-8.072-5.472-15.898-9.21-23.674c0,9.704,0,19.408,0,29.419c-2.995,0-5.52,0-8.35,0
			c0-15.279,0-30.413,0-45.599c0.524-0.198,0.96-0.489,1.413-0.515c8.903-0.51,8.88-0.496,11.888,8.041
			c2.431,6.891,4.93,13.755,8.421,20.524c0-9.292,0-18.584,0-28.254c2.986,0,5.334,0,8.128,0
			C1397.921,162.473,1397.921,177.596,1397.921,193.229z"/>
		<path display="inline" fill="#FFFFFF" d="M745.43,193.458c-2.356,0-4.311-0.174-6.219,0.04c-2.951,0.33-4.356-0.883-5.284-3.684
			c-2.858-8.615-5.987-17.141-9.011-25.702c-0.419,0.045-0.836,0.088-1.255,0.133c0,7.536,0.002,15.071,0,22.605
			c-0.003,7.371-0.049,7.405-8.219,6.021c0-15.073,0-30.197,0-45.337c0.642-0.225,1.082-0.498,1.538-0.522
			c8.788-0.456,8.78-0.446,11.669,7.676c2.531,7.115,5.083,14.225,7.628,21.338c0.41-0.067,0.82-0.137,1.23-0.206
			c0-4.648,0-9.297,0-13.945c0-4.726,0-9.453,0-14.553c2.787,0,5.136,0,7.92,0C745.43,162.485,745.43,177.599,745.43,193.458z"/>
		<path display="inline" fill="#FFFFFF" d="M1181.927,256.691c-3.172,0-5.588,0-8.364,0c0-15.105,0-30.082,0-45.849
			c2.73,0,5.646-0.305,8.441,0.146c1.152,0.186,2.498,1.819,2.981,3.091c2.687,7.012,5.12,14.12,7.669,21.186
			c0.526,1.452,1.174,2.862,2.782,4.145c0-9.333,0-18.669,0-28.289c2.975,0,5.326,0,8.007,0c0,15.227,0,30.175,0,45.132
			c-0.691,0.25-1.129,0.524-1.581,0.556c-8.442,0.565-8.421,0.551-11.241-7.457c-2.585-7.328-5.229-14.634-8.694-21.824
			C1181.927,237.046,1181.927,246.564,1181.927,256.691z"/>
		<path display="inline" fill="#FFFFFF" d="M786.703,211.014c3.391,0,5.79,0,8.542,0c0,15.131,0,30.084,0,45.853
			c-2.793,0-5.705,0.313-8.488-0.15c-1.15-0.19-2.471-1.87-2.952-3.159c-2.704-7.179-5.166-14.445-7.736-21.675
			c-0.568-1.597-1.239-3.155-2.979-4.521c0,9.674,0,19.346,0,29.273c-2.795,0-5.021,0-7.653,0c0-15.105,0-30.062,0-45.793
			c2.72,0,5.506-0.382,8.099,0.161c1.294,0.271,2.728,2.045,3.262,3.456c3.17,8.389,6.097,16.869,9.908,25.29
			C786.703,230.346,786.703,220.939,786.703,211.014z"/>
		<path display="inline" fill="#FFFFFF" d="M1456.865,193.458c0-15.117-0.056-29.465,0.134-43.808
			c0.013-0.913,1.886-2.489,2.982-2.574c4.057-0.313,8.154-0.172,12.234-0.121c7.293,0.089,10.904,2.164,12.58,7.129
			c1.934,5.735,0.479,10.175-4.788,14.608c6.305,4.343,8.16,8.773,6.307,15.697c-1.642,6.136-6.271,8.42-12.126,8.76
			c-3.902,0.226-7.821,0.225-11.729,0.302C1460.853,193.485,1459.248,193.458,1456.865,193.458z M1465.719,179.701
			c1.363,2.19-2.329,6.754,3.331,6.863c5.356,0.103,7.938-2.255,7.989-6.933c0.051-4.664-2.387-7.02-7.188-7.226
			C1463.502,172.131,1466.836,177.011,1465.719,179.701z M1465.812,159.747c0.846,2.262-1.858,6.482,3.513,6.235
			c3.803-0.177,6.693-1.442,6.736-5.972c0.039-4.247-2.239-6.257-6.866-6.286C1464.214,153.693,1466.513,157.444,1465.812,159.747z"
			/>
		<path display="inline" fill="#FFFFFF" d="M1554.632,170.281c9.253,5.848,3.166,15.611,7.363,22.926
			c-2.152,0.109-3.603,0.061-5.011,0.273c-4.329,0.654-5.979-1.323-5.826-5.481c0.079-2.115-0.166-4.247-0.348-6.362
			c-0.664-7.701-1.987-8.657-10.541-7.187c0,4.263-0.396,8.686,0.1,13.007c0.607,5.284-1.586,6.771-6.337,6.005
			c-0.793-0.128-1.603-0.136-2.765-0.227c0-15.246,0-30.384,0-45.723c6.998,0,14.228-0.802,21.195,0.209
			c8.201,1.19,11.025,13.837,4.992,20.196C1556.693,168.727,1555.742,169.363,1554.632,170.281z M1540.647,152.52
			c0,6.088,0,10.209,0,15.908c3.77-1.553,7.409-2.091,9.365-4.193c1.327-1.427,1.356-6.033,0.052-7.464
			C1548.142,154.665,1544.506,154.125,1540.647,152.52z"/>
		<path display="inline" fill="#FFFFFF" d="M1040.74,170.186c0.002-6.53,0.096-13.062-0.041-19.59
			c-0.058-2.758,0.937-3.787,3.695-3.688c4.4,0.159,8.823-0.13,13.219,0.094c7.294,0.374,12.044,3.899,12.755,11.104
			c0.778,7.867,0.743,15.955-0.153,23.808c-0.832,7.281-4.838,10.171-12.172,11.163c-17.305,2.341-17.305,2.341-17.305-14.564
			C1040.74,175.736,1040.74,172.96,1040.74,170.186z M1050.283,186.152c7.941,0.945,10.919-0.924,11.511-7.944
			c0.479-5.662,0.499-11.46-0.168-17.093c-0.772-6.523-4.646-8.453-11.341-6.485
			C1050.283,165.013,1050.283,175.434,1050.283,186.152z"/>
		<path display="inline" fill="#FFFFFF" d="M899.563,256.611c-3.456,0-6.161,0-9.12,0c0-15.277,0-30.254,0-45.574
			c6.908,0,13.589-0.299,20.229,0.104c4.416,0.271,7.578,2.981,8.688,7.477c1.56,6.316-0.085,11.092-5.316,15.447
			c9.018,5.433,3.295,15.021,6.669,22.047c-0.577,0.339-0.848,0.621-1.134,0.645c-8.597,0.651-8.592,0.646-9.163-7.761
			c-0.075-1.142-0.277-2.272-0.352-3.415c-0.498-7.737-1.696-8.646-10.502-7.329c0,2.948,0,6.011,0,9.072
			C899.563,250.241,899.563,253.162,899.563,256.611z M899.846,230.995c4.217,0.217,8.282,0.69,9.792-3.422
			c0.821-2.238,0.729-6.239-0.69-7.531c-2.066-1.878-5.704-2.03-9.102-3.047C899.846,222.538,899.846,226.535,899.846,230.995z"/>
		<path display="inline" fill="#FFFFFF" d="M1553.437,256.208c-0.63,0.376-0.762,0.519-0.904,0.531
			c-8.938,0.806-9.366,0.43-9.636-8.476c-0.02-0.656,0.002-1.312-0.006-1.969c-0.095-8.189-1.307-9.216-10.434-8.179
			c0,6.013,0,12.141,0,18.514c-3.396,0-6.108,0-9.123,0c0-15.187,0-30.168,0-45.592c6.728,0,13.398-0.291,20.028,0.103
			c4.411,0.26,7.903,2.854,8.667,7.418c0.969,5.776,1.104,11.605-5.478,15.344C1555.728,239.417,1550.234,248.966,1553.437,256.208z
			 M1532.758,216.438c0,5.977,0,10.111,0,15.887c3.758-1.624,7.406-2.215,9.303-4.356c1.314-1.485,1.271-6.032-0.061-7.549
			C1540.214,218.382,1536.6,217.956,1532.758,216.438z"/>
		<path display="inline" fill="#FFFFFF" d="M754.689,193.042c0-15.419,0-30.437,0-45.769c6.382,0,12.565-0.328,18.695,0.096
			c5.725,0.396,9.827,4.109,10.243,9.606c0.656,8.715,0.686,17.586-0.198,26.269c-0.597,5.838-5.054,9.491-11.257,9.748
			C766.496,193.229,760.805,193.042,754.689,193.042z M764.145,186.078c7.84,1.035,10.643-0.879,11.155-8.083
			c0.392-5.495,0.409-11.078-0.087-16.562c-0.597-6.604-4.338-8.718-11.068-6.807C764.145,164.979,764.145,175.386,764.145,186.078z
			"/>
		<path display="inline" fill="#FFFFFF" d="M898.052,193.085c0-15.251,0-30.347,0-45.917c6.604,0,13.095-0.275,19.546,0.097
			c4.314,0.248,7.742,2.45,8.971,7.057c1.338,5.011,0.985,9.705-2.602,13.757c-0.729,0.821-1.695,1.432-2.604,2.18
			c8.991,5.816,3.567,15.42,7.043,22.976c-2.07,0.094-3.54,0.025-4.961,0.248c-4.474,0.693-5.818-1.673-5.734-5.607
			c0.036-1.794,0.002-3.593-0.053-5.388c-0.243-8.208-1.939-9.555-10.751-8.095c0,6.044,0,12.185,0,18.692
			C903.746,193.085,901.086,193.085,898.052,193.085z M906.768,167.433c2.992-0.32,5.354-0.145,7.388-0.878
			c4.136-1.492,4.19-5.164,3.35-8.619c-0.986-4.05-4.488-4.262-7.865-4.153c-4.544,0.147-2.523,3.698-2.808,5.887
			C906.541,161.892,906.768,164.182,906.768,167.433z"/>
		<path display="inline" fill="#FFFFFF" d="M1514.191,147.359c1.162-0.235,1.48-0.346,1.802-0.359
			c7.57-0.345,7.629-0.343,7.561,7.024c-0.093,9.471,0.073,18.965-0.55,28.404c-0.522,7.862-5.115,11.266-13.685,11.399
			c-9.93,0.153-14.42-2.528-15.004-10.797c-0.777-11.056-0.49-22.194-0.414-33.296c0.008-0.934,1.755-2.372,2.922-2.664
			c1.811-0.453,3.815-0.119,6.31-0.119c0,10.392-0.021,20.31,0.021,30.226c0.008,1.946-0.341,4.263,0.563,5.742
			c1.1,1.796,3.396,4.025,5.096,3.964c1.719-0.063,3.893-2.418,4.846-4.291c0.881-1.731,0.511-4.15,0.519-6.268
			C1514.213,166.725,1514.191,157.122,1514.191,147.359z"/>
		<path display="inline" fill="#FFFFFF" d="M978.146,233.891c0.494-4.506,0.656-8.951,1.53-13.25
			c1.487-7.322,6.624-10.884,14.751-10.804c7.871,0.078,13.506,3.595,14.191,10.743c0.854,8.865,0.885,17.947-0.021,26.804
			c-0.741,7.263-5.972,10.269-14.354,10.271c-8.393,0.005-13.042-3.045-14.528-10.206
			C978.791,242.995,978.64,238.383,978.146,233.891z M987.494,233.958c0.309,3.933,0.389,7.707,0.961,11.405
			c0.471,3.031,1.813,5.625,5.592,5.724c3.76,0.097,5.668-2.354,5.811-5.394c0.363-7.793,0.355-15.625,0.013-23.42
			c-0.133-3.058-2.067-5.61-5.729-5.539c-3.617,0.072-5.228,2.566-5.67,5.692C987.919,226.298,987.791,230.229,987.494,233.958z"/>
		<path display="inline" fill="#FFFFFF" d="M1210.85,170.077c0.521-4.605,0.637-9.22,1.642-13.632
			c1.668-7.325,6.9-10.743,14.936-10.478c7.698,0.256,13.317,3.952,13.981,11.022c0.813,8.688,0.847,17.577-0.018,26.254
			c-0.719,7.251-5.753,10.422-13.564,10.55c-9.286,0.153-13.661-2.519-15.379-10.18
			C1211.457,179.199,1211.353,174.585,1210.85,170.077z M1233.652,170.123c-0.423-4.109-0.352-8.463-1.507-12.461
			c-0.559-1.932-3.423-4.428-5.241-4.424c-1.845,0.002-5.161,2.661-5.28,4.337c-0.582,8.243-0.611,16.564-0.104,24.813
			c0.104,1.705,3.101,4.026,5.18,4.631c3.239,0.941,5.178-1.566,5.653-4.616C1232.979,178.394,1233.226,174.324,1233.652,170.123z"
			/>
		<path display="inline" fill="#FFFFFF" d="M1210.838,233.979c0.531-4.707,0.66-9.332,1.651-13.764
			c1.595-7.119,6.563-10.406,14.569-10.38c7.771,0.024,13.545,3.58,14.262,10.697c0.895,8.862,0.867,17.944,0.009,26.813
			c-0.671,6.932-5.906,10.186-13.385,10.309c-9.09,0.15-13.68-2.48-15.393-9.705
			C1211.471,243.378,1211.367,238.578,1210.838,233.979z M1233.653,233.863c-0.432-4.205-0.342-8.402-1.476-12.237
			c-0.584-1.974-3.13-4.203-5.186-4.713c-3.167-0.785-5.47,1.854-5.597,4.808c-0.346,8.115-0.449,16.274,0.075,24.368
			c0.114,1.757,3.006,4.147,5.063,4.771c3.127,0.941,5.307-1.334,5.785-4.476C1232.962,242.207,1233.232,237.975,1233.653,233.863z"
			/>
		<path display="inline" fill="#FFFFFF" d="M1134.198,233.98c0.512-4.576,0.643-9.199,1.612-13.638
			c1.57-7.175,6.538-10.534,14.47-10.508c7.837,0.024,13.635,3.521,14.357,10.565c0.909,8.861,0.916,17.945,0.066,26.813
			c-0.678,7.115-5.962,10.363-13.771,10.44c-8.967,0.09-13.467-2.674-15.111-10.049
			C1134.834,243.175,1134.714,238.55,1134.198,233.98z M1157.006,234.189c-0.427-4.342-0.69-8.412-1.264-12.438
			c-0.44-3.109-2.502-5.555-5.596-4.846c-2.066,0.475-5.105,2.91-5.223,4.639c-0.557,8.25-0.56,16.575-0.02,24.826
			c0.106,1.673,3.369,4.309,5.237,4.359c1.804,0.051,4.755-2.349,5.31-4.229C1156.633,242.514,1156.577,238.16,1157.006,234.189z"/>
		<path display="inline" fill="#FFFFFF" d="M1037.976,341.98c1.572,0.336,2.04,0.49,2.517,0.524
			c3.068,0.229,7.981,1.652,8.824,0.386c1.713-2.584,2.213-6.877,1.413-10.004c-1.063-4.147-3.599-8.016-5.97-11.701
			c-1.74-2.703-2.356-5.059-1.226-8.179c1.827-5.041,3.23-10.235,5.062-16.167c-2.865,0-5.257,0.23-7.586-0.05
			c-4.265-0.513-5.68,0.991-5.609,5.408c0.247,16.37,0.098,32.749,0.098,49.124c0,1.792,0,3.584,0,5.958
			c-1.92,0.088-3.6,0.163-5.692,0.259c-0.167-1.747-0.418-3.156-0.419-4.563c-0.026-18.994,0.066-37.989-0.096-56.982
			c-0.029-3.825,1.059-5.25,5.002-4.997c5.058,0.323,10.148-0.004,15.225,0.104c4.999,0.105,6.413,2.109,5.025,6.774
			c-0.605,2.036-1.002,4.162-1.852,6.093c-3.381,7.699-4.091,14.653,1.482,22.258c2.646,3.609,3.055,9.713,2.655,14.535
			c-0.847,10.236-9.307,11.945-16.957,8.195C1038.541,348.307,1038.652,344.709,1037.976,341.98z"/>
		<path display="inline" fill="#FFFFFF" d="M792.76,147.193c3.084,0,5.625,0,8.857,0c0,9.444-0.004,18.698,0.005,27.953
			c0,2.124-0.217,4.293,0.139,6.363c0.516,3.016,1.688,5.802,5.519,5.675c3.778-0.126,5.037-2.846,5.174-5.964
			c0.239-5.384,0.099-10.786,0.104-16.181c0.008-5.843,0.001-11.686,0.001-17.475c0.912-0.288,1.356-0.535,1.812-0.555
			c7.563-0.349,7.563-0.344,7.563,7.035c0,8.502,0.054,17.003-0.023,25.502c-0.048,5.298-1.158,10.521-6.486,12.764
			c-6.043,2.542-12.652,2.936-18.254-1.008c-2.206-1.55-4.108-5.093-4.213-7.801C792.505,171.606,792.76,159.685,792.76,147.193z"/>
		<path display="inline" fill="#FFFFFF" d="M1638.867,147.193c3.229,0,5.771,0,9.082,0c0,6.21-0.011,12.192,0.004,18.176
			c0.011,5.069-0.168,10.149,0.147,15.199c0.207,3.329,1.104,6.783,5.589,6.592c4.408-0.187,5.081-3.524,5.119-6.966
			c0.091-8.5,0.036-17.003,0.036-25.505c0.002-8.562,0.001-8.562,9.154-7.225c0,11.969,0.51,24.033-0.188,36.025
			c-0.431,7.42-5.822,10.448-15.128,10.319c-9.654-0.136-13.678-4.129-13.808-13.75c-0.043-3.106-0.012-6.212-0.012-9.318
			C1638.867,163.067,1638.867,155.395,1638.867,147.193z"/>
		<path display="inline" fill="#FFFFFF" d="M1598.373,193.175c4.152-15.684,8.155-30.795,12.104-45.697
			c0.679-0.237,0.982-0.424,1.293-0.439c10.278-0.494,10.302-0.498,12.909,9.354c2.884,10.896,5.729,21.803,8.567,32.711
			c0.313,1.215,0.465,2.474,0.689,3.707c-8.574,1.653-8.536,1.555-10.813-5.96c-0.405-1.331-2.345-2.447-3.819-3.118
			c-1.086-0.494-2.599,0.061-3.879-0.129c-3.99-0.589-6.234,0.744-6.375,5.062c-0.047,1.429-0.705,2.837-1.154,4.511
			C1604.991,193.175,1602.109,193.175,1598.373,193.175z M1617.035,157.581c-0.419-0.026-0.838-0.049-1.256-0.074
			c-1.257,5.885-2.515,11.771-3.84,17.973c3.182,0,5.672,0,8.819,0C1619.45,169.19,1618.242,163.385,1617.035,157.581z"/>
		<path display="inline" fill="#FFFFFF" d="M950.722,192.792c1.042-3.926,2.085-7.813,3.104-11.705
			c2.481-9.48,5.172-18.913,7.329-28.464c1.008-4.462,2.874-6.573,7.578-5.725c1.577,0.284,3.247,0.046,5.553,0.046
			c4.043,15.224,8.079,30.423,12.247,46.122c-3.342,0-6.171,0-9.383,0c-0.183-0.533-0.476-1.25-0.675-1.992
			c-1.958-7.311-4.965-9.197-12.278-7.281c-1.024,0.268-2.108,1.812-2.448,2.974C959.527,194.39,959.591,194.407,950.722,192.792z
			 M969.113,157.446c-0.415,0.011-0.83,0.024-1.244,0.039c-1.19,5.92-2.384,11.841-3.641,18.087c3.321,0,5.701,0,8.784,0
			C971.653,169.255,970.383,163.35,969.113,157.446z"/>
		<path display="inline" fill="#FFFFFF" d="M1559.484,242.93c2.864,0,5.418,0,8.161,0c0.324,1.365,0.244,2.924,0.984,3.754
			c1.482,1.672,3.344,3.969,5.183,4.099c1.861,0.131,5.057-1.691,5.541-3.298c0.604-2.002-0.271-5.365-1.777-6.861
			c-1.941-1.928-5.39-2.234-7.747-3.875c-3.354-2.338-7.368-4.675-9.197-8.046c-3.118-5.748-0.471-13.577,4.288-16.589
			c5.499-3.481,15.87-3.16,19.737,1.264c2.09,2.389,2.935,5.861,4.754,9.729c-5.119,0.006-9.554,2.802-11.196-3.834
			c-0.287-1.155-3.283-2.576-4.689-2.276c-1.679,0.354-4.056,2.317-4.208,3.784c-0.212,2.056,0.734,5.15,2.286,6.269
			c3.116,2.24,7.017,3.372,10.526,5.093c4.174,2.043,7.163,4.973,7.526,10.016c0.699,9.666-4.161,15.154-13.929,15.486
			c-1.307,0.043-2.616,0.041-3.923,0.008C1562.695,257.412,1558.564,252.686,1559.484,242.93z"/>
		<path display="inline" fill="#FFFFFF" d="M849.303,159.312c-1.757-2.45-2.717-5.203-4.354-5.694
			c-1.817-0.546-5.155,0.295-6.231,1.732c-2.002,2.668-1.557,6.129,1.662,8.044c2.922,1.74,6.198,2.882,9.313,4.304
			c7.372,3.369,9.986,8.122,8.597,15.603c-1.254,6.735-5.815,10.196-13.865,10.472c-1.633,0.056-3.267-0.03-4.896-0.008
			c-6.563,0.081-13.255-5.092-11.03-14.416c2.479,0,5.033,0,7.984,0c0.188,0.864,0.395,1.905,0.638,2.938
			c0.717,3.035,2.479,5.393,5.715,4.761c2.06-0.402,5.185-2.121,5.397-3.602c0.331-2.277-0.771-5.583-2.467-7.126
			c-2.164-1.964-5.507-2.662-8.381-3.804c-5.942-2.359-9.189-6.53-9.099-13.082c0.088-6.211,2.792-10.514,7.836-12.36
			c6.414-2.349,15.037-1.019,18.152,3.404c1.623,2.304,2.098,5.417,3.333,8.833C853.78,159.312,851.233,159.312,849.303,159.312z"/>
		<path display="inline" fill="#FFFFFF" d="M849.455,223.195c-2.746,0-5.3,0-8.187,0c-0.298-0.779-0.403-1.885-1.013-2.484
			c-1.486-1.465-3.218-3.744-4.831-3.729c-1.659,0.015-4.351,2.143-4.681,3.74c-0.398,1.928,0.582,5.066,2.093,6.258
			c2.609,2.059,6.083,3.025,9.198,4.44c7.928,3.601,10.235,7.991,8.629,16.433c-1.157,6.096-6.12,9.584-13.932,9.795
			c-12.144,0.33-16.568-3.494-16.208-14.489c2.625,0,5.279,0,8.349,0c0.256,0.791,0.719,1.808,0.896,2.874
			c0.547,3.21,2.435,5.388,5.596,4.861c2.031-0.34,5.271-2.244,5.352-3.599c0.143-2.485-0.982-5.844-2.805-7.44
			c-2.316-2.035-5.895-2.592-8.855-3.945c-4.03-1.842-7.248-4.473-7.771-9.277c-0.624-5.751-0.48-11.46,5.321-14.64
			c5.984-3.278,12.347-3.116,18.235,0.362C848.692,214.626,849.746,218.552,849.455,223.195z"/>
		<path display="inline" fill="#FFFFFF" d="M1499.518,256.574c-1.911,0.136-3.35,0.172-4.768,0.354
			c-3.467,0.448-5.804-0.602-5.782-4.482c0.027-6.022-4.129-5.166-8.104-5.459c-4.406-0.327-6.332,1.33-6.565,5.584
			c-0.068,1.261-0.638,2.49-1.053,4.021c-2.9,0-5.771,0-9.229,0c0.474-2.201,0.816-4.201,1.333-6.158
			c3.164-11.998,6.396-23.979,9.524-35.984c0.587-2.258,1.3-4.281,4.103-3.58c3.018,0.755,7.591-2.412,8.944,2.296
			C1492.017,227.414,1495.611,241.807,1499.518,256.574z M1482.277,221.691c-0.436,0.004-0.873,0.009-1.308,0.013
			c-1.225,5.75-2.444,11.499-3.755,17.666c3.188,0,5.69,0,8.865,0C1484.743,233.156,1483.51,227.423,1482.277,221.691z"/>
		<path display="inline" fill="#FFFFFF" d="M1401.916,256.65c-2.022,0.106-3.49,0.067-4.918,0.285
			c-3.684,0.562-5.509-0.961-5.702-4.662c-0.208-3.957-2.054-5.689-6.289-5.276c-3.832,0.372-7.749-0.724-8.437,5.219
			c-0.622,5.368-1.849,5.618-10.279,4.022c2.507-9.622,4.998-19.219,7.513-28.812c0.829-3.157,1.733-6.297,2.578-9.452
			c1.896-7.111,4.625-8.857,11.672-7.016c1.04,0.271,2.17,1.816,2.489,2.98C1394.364,227.953,1398.041,242.003,1401.916,256.65z
			 M1388.538,239.377c-1.424-6.42-2.743-12.376-4.063-18.333c-0.358,0.052-0.716,0.104-1.074,0.156
			c-1.232,5.973-2.469,11.948-3.755,18.177C1382.935,239.377,1385.452,239.377,1388.538,239.377z"/>
		<path display="inline" fill="#FFFFFF" d="M1157.344,154.357c0,3.893,0,7.101,0,10.928c4.764,0,9.574,0,14.674,0
			c0,2.818,0,5.019,0,7.755c-4.836,0-9.51,0-14.578,0c0,4.332,0,8.139,0,12.59c5.406,0,10.726,0,16.317,0c0,2.83,0,5.03,0,7.53
			c-8.612,0-17.046,0-25.855,0c0-15.244,0-30.369,0-45.858c8.239,0,16.482,0,25.065,0c0,2.24,0,4.298,0,7.056
			C1167.883,154.357,1162.759,154.357,1157.344,154.357z"/>
		<path display="inline" fill="#FFFFFF" d="M1109.168,146.946c2.463,0,4.389,0.152,6.278-0.036c2.92-0.292,3.979,1.034,4.458,3.792
			c1.646,9.392,3.519,18.741,6.372,28.169c1.183-5.663,2.368-11.323,3.54-16.989c0.527-2.559,1.002-5.13,1.55-7.685
			c1.707-7.966,1.719-7.964,10.855-6.759c-1.565,6.967-3.108,13.899-4.685,20.822c-1.629,7.162-3.35,14.303-4.902,21.48
			c-0.559,2.566-1.539,3.801-4.521,3.806c-8.237,0.011-8.213,0.172-10.05-7.875C1115.172,172.976,1112.237,160.29,1109.168,146.946z
			"/>
		<path display="inline" fill="#FFFFFF" d="M1250.191,146.988c6.056,0,11.771-0.269,17.453,0.07
			c6.795,0.403,10.74,5.089,11.219,12.561c0.493,7.728-2.876,12.993-9.564,14.439c-3.011,0.65-6.146,0.723-10.072,1.148
			c0,3.837,0.003,7.849,0,11.861c-0.002,6.625-0.004,6.63-6.812,6.372c-0.635-0.023-1.266-0.157-2.224-0.284
			C1250.191,177.934,1250.191,162.8,1250.191,146.988z M1259.656,152.909c0,5.883,0,10.301,0,16.461
			c3.689-1.83,7.438-2.505,8.708-4.65c1.265-2.127,1.024-6.413-0.396-8.491C1266.659,154.319,1262.902,154.086,1259.656,152.909z"/>
		<path display="inline" fill="#FFFFFF" d="M1346.608,226.047c-2.929,0-5.513,0-8.495,0c-0.329-1.802-0.179-3.84-1.076-5.165
			c-1.142-1.685-3.038-3.677-4.792-3.87c-1.424-0.16-4.432,2.081-4.484,3.356c-0.395,9.063-0.385,18.161,0.007,27.228
			c0.05,1.199,3.005,3.199,4.567,3.156c1.621-0.045,3.826-1.807,4.619-3.393c1.117-2.237,1.168-5.006,1.726-7.789
			c2.563,0,5.118,0,7.639,0c2.288,7.875-1.154,16.008-8.08,17.464c-10.337,2.172-18.458,0.118-19.79-9.427
			c-1.248-8.924-1.191-18.271-0.047-27.219c1.068-8.332,8.516-11.896,17.708-10.263
			C1343.864,211.509,1347.219,216.427,1346.608,226.047z"/>
		<path display="inline" fill="#FFFFFF" d="M1335.395,147.189c8.538,0,16.645,0,25.059,0c0,2.422,0,4.597,0,7.3
			c-5.378,0-10.537,0-16.035,0c0,3.701,0,6.89,0,10.745c4.873,0,9.821,0,15,0c0,2.866,0,5.074,0,7.833c-4.938,0-9.764,0-14.967,0
			c0,4.337,0,8.129,0,12.485c5.532,0,10.863,0,16.579,0c0,2.738,0,4.923,0,7.511c-8.429,0-16.819,0-25.636,0
			C1335.395,177.905,1335.395,162.804,1335.395,147.189z"/>
		<path display="inline" fill="#FFFFFF" d="M1594.93,185.59c0.686,7.864,0.686,7.865-5.98,7.868c-6.488,0.001-12.98,0-19.773,0
			c0-15.706,0-30.805,0-46.21c8.402,0,16.502,0,24.975,0c0,2.204,0,4.382,0,7.109c-5.088,0-10.239,0-15.795,0
			c0,3.833,0,7.132,0,10.929c4.914,0,9.742,0,14.87,0c0,2.685,0,4.892,0,7.646c-4.724,0-9.542,0-14.821,0c0,4.33,0,8.13,0,12.658
			C1583.807,185.59,1589.261,185.59,1594.93,185.59z"/>
		<path display="inline" fill="#FFFFFF" d="M1105.5,193.201c-8.578,0-16.845,0-25.564,0c0-15.222,0-30.303,0-45.823
			c8.169,0,16.376,0,24.896,0c0,2.175,0,4.354,0,7.08c-5.259,0-10.41,0-15.905,0c0,3.714,0,6.901,0,10.755c4.838,0,9.789,0,14.978,0
			c0,2.86,0,5.067,0,7.823c-4.89,0-9.712,0-14.933,0c0,4.333,0,8.124,0,12.482c5.46,0,10.785,0,16.529,0
			C1105.5,188.249,1105.5,190.428,1105.5,193.201z"/>
		<path display="inline" fill="#FFFFFF" d="M1090.527,229.094c0,3.045,0,5.129,0,7.67c-4.896,0-9.584,0-15.017,0
			c0,3.787-0.245,7.172,0.161,10.479c0.108,0.894,2.152,2.118,3.375,2.198c4.217,0.271,8.462,0.104,13.063,0.104
			c0,2.459,0,4.49,0,6.948c-8.356,0-16.781,0-25.614,0c0-14.87,0-29.84,0-45.242c8.037,0,16.258,0,24.861,0c0,2.216,0,4.383,0,7.085
			c-5.197,0-10.2,0-15.541,0c0,3.718,0,6.92,0,10.759C1080.484,229.094,1085.291,229.094,1090.527,229.094z"/>
		<path display="inline" fill="#FFFFFF" d="M1127.334,225.945c-2.668,0-5.375,0-8.145,0c-0.393-1.918-0.319-3.953-1.226-5.355
			c-1.025-1.589-2.894-3.548-4.464-3.613c-1.558-0.063-4.536,1.963-4.6,3.188c-0.456,9.043-0.518,18.121-0.193,27.167
			c0.048,1.281,2.944,3.534,4.372,3.423c1.775-0.139,4.005-1.937,4.929-3.625c1.113-2.036,1.063-4.708,1.589-7.47
			c2.649,0,5.479,0,8.734,0c-0.104,5.824-0.142,11.52-5.003,15.307c-5.101,3.975-11.128,3.44-16.863,1.583
			c-5.125-1.659-7.334-6.196-7.646-11.049c-0.496-7.64-0.771-15.396-0.01-22.989c0.954-9.518,8.229-14.106,18.055-12.468
			C1124.965,211.4,1128.646,216.875,1127.334,225.945z"/>
		<path display="inline" fill="#FFFFFF" d="M893.25,302.477c-2.089,3.328-5.021,6.424-6.024,10.056
			c-1.046,3.776-0.233,8.069-0.233,12.513c-1.645,0.078-2.994,0.146-4.354,0.212c-2.336-6.506,2.15-14.155-4.922-20.521
			c-0.213,4.568-0.349,8.166-0.556,11.761c-0.409,7.136-2.628,8.721-10.258,6.981c-0.153-1.395-0.323-2.938-0.494-4.485
			c5.817-0.597,6.738-1.65,6.012-7.229c-0.136-1.035-1.188-1.947-1.818-2.916c-1.066,0.715-2.668,1.195-3.107,2.189
			c-1.764,3.984-3.167,8.128-4.861,12.636c-2.062-0.821-3.464-1.38-5.018-1.999c1.879-4.154,3.597-7.947,4.888-10.801
			c-1.738-2.357-2.937-3.979-4.908-6.65c7.093,0,12.58,0,17.838,0c1.114-2.095,2.013-3.783,3.341-6.277
			c-4.667,0-9.103,0.048-13.533-0.016c-3.714-0.052-3.714-0.109-3.476-4.894c5.461,0,10.979,0.149,16.481-0.104
			c1.356-0.063,2.658-1.431,3.974-2.221c0.969-0.584,1.913-1.672,2.875-1.678c0.948-0.006,1.9,1.068,2.858,1.66
			c1.281,0.787,2.541,2.178,3.856,2.236c5.543,0.254,11.104,0.106,17.129,0.106c0.158,1.521,0.296,2.854,0.49,4.749
			c-9.822,0-19.225,0-29.854,0c2.023,2.738,3.369,4.563,4.91,6.648c1.744-1.951,3.141-3.516,5.95-6.66
			c0.968,1.735,1.836,3.291,2.695,4.854C893.125,302.637,893.25,302.477,893.25,302.477z"/>
		<path display="inline" fill="#FFFFFF" d="M1042.523,218.395c-5.261,0-10.278,0-15.638,0c0,3.707,0,7.021,0,10.842
			c4.921,0,9.748,0,14.856,0c0,2.69,0,4.883,0,7.58c-4.971,0-9.795,0-15.105,0c0,6.775,0,13.068,0,19.724c-3.313,0-6.119,0-9.479,0
			c0-9.244,0-18.194,0-27.146c0-4.901,0.145-9.812-0.049-14.707c-0.12-3.037,1.032-4.018,3.984-3.918
			c5.225,0.176,10.458,0.047,15.688,0.051C1043.514,210.823,1043.514,210.825,1042.523,218.395z"/>
		<path display="inline" fill="#FFFFFF" d="M1464.405,210.82c0,2.758,0,4.691,0,7.371c-5.258,0-10.521,0-16.031,0
			c0,3.942,0,7.147,0,10.853c4.812,0,9.63,0,14.851,0c0,2.681,0,4.873,0,7.575c-4.681,0-9.497,0-14.979,0c0,6.89,0,13.314,0,20.005
			c-3.369,0-6.073,0-9.518,0c0-2.569,0-4.955,0-7.339c0.001-11.441,0.098-22.883-0.058-34.323c-0.044-3.217,1.002-4.291,4.213-4.202
			C1449.865,210.953,1456.862,210.82,1464.405,210.82z"/>
		<path display="inline" fill="#FFFFFF" d="M713.837,356.832c-2.003,0-3.425,0-5.47,0c0-10.24,0-20.451,0-30.988
			c-3.836,0.295-7.033,0.538-10.497,0.807c-0.489-1.608-0.939-3.092-1.027-3.377c4.036-3.578,7.428-6.584,11.539-10.229
			c-4.45-3.521-8.089-6.396-12.015-9.501c0.72-2.735,1.385-5.578,5.701-3.33c1.783-3.907,3.454-7.575,5.263-11.536
			c1.695,0.778,3.118,1.434,5.005,2.299c-2.004,4.332-3.892,8.426-5.979,12.951c1.172,1,2.467,2.104,4.281,3.653
			c1.688-3.74,3.133-6.933,4.739-10.488c1.473,0.416,2.967,0.839,5.882,1.662c-4.071,7.183-7.854,13.843-11.856,20.903
			c2.613-0.432,4.974-0.817,7.496-1.232c-0.3-1.66-0.548-3.033-0.783-4.341c5.418-2.335,5.705-1.931,8.646,11.894
			c-2.06,0.869-4.027,3.106-5.829-0.717c-0.295-0.623-2.644-1.02-3.341-0.523c-0.939,0.658-1.65,2.277-1.676,3.5
			c-0.146,7.686-0.076,15.375-0.078,23.061C713.837,353.055,713.837,354.811,713.837,356.832z"/>
		<path display="inline" fill="#FFFFFF" d="M1407.25,256.566c0-15.293,0-30.248,0-45.474c8.396,0,16.5,0,25.043,0
			c0,2.289,0,4.453,0,7.146c-5.018,0-10.014,0-15.421,0c0,3.815,0,7.122,0,10.905c4.693,0,9.369,0,14.454,0c0,2.627,0,4.813,0,7.625
			c-4.694,0-9.49,0-14.846,0c0,6.891,0,13.176,0,19.793C1413.207,256.566,1410.502,256.566,1407.25,256.566z"/>
		<path display="inline" fill="#FFFFFF" d="M864.617,325.718c2.015,0,3.469,0,4.921,0c-0.133,0.415-0.267,0.829-0.396,1.244
			c1.796,0.813,3.573,2.269,5.396,2.325c8.163,0.254,16.339,0.109,24.821,0.109c0.396-1.457,0.752-2.781,1.17-4.332
			c1.545,0,3.097,0,4.952,0c0,10.617,0,21.002,0,31.778c-1.696,0.084-3.251,0.162-5.299,0.269c0-4.025,0-7.719,0-12.088
			c-10.043,0-19.628-0.08-29.208,0.127c-0.914,0.021-1.999,1.707-2.652,2.824c-1.855,3.187-3.532,6.479-5.451,10.051
			c-2.167-1.475-3.597-2.444-5.511-3.746C865.268,346.242,864.412,336.074,864.617,325.718z M899.991,339.732
			c-0.095-1.961-0.171-3.491-0.25-5.115c-9.965,0-19.506,0-29.116,0c0,1.84,0,3.363,0,5.115
			C880.362,339.732,889.77,339.732,899.991,339.732z"/>
		<path display="inline" fill="#FFFFFF" d="M924.078,211.15c1.769-0.16,2.731-0.18,3.669-0.344c4.775-0.84,7.604,0.738,8.614,5.842
			c0.713,3.613,2.356,7.041,4.071,11.947c1.598-4.328,2.741-7.375,3.852-10.437c2.94-8.104,2.938-8.107,12.441-6.866
			c-5.323,14.7-15.21,28.154-11.12,45.155c-2.248,0.218-3.498,0.411-4.755,0.44c-1.296,0.03-2.596-0.1-5.194-0.22
			C939.39,239.841,929.68,226.412,924.078,211.15z"/>
		<path display="inline" fill="#FFFFFF" d="M872.588,154.493c-3.688,0-6.441,0-9.613,0c0-2.432,0-4.605,0-7.177
			c9.452,0,18.979,0,28.72,0c0,2.281,0,4.359,0,7.034c-3.051,0-6.061,0-9.819,0c0,6.555,0,12.539,0,18.524
			c0,4.906-0.315,9.839,0.094,14.712c0.396,4.75-1.212,6.676-5.947,5.885c-0.943-0.157-1.916-0.153-3.432-0.265
			C872.588,180.411,872.588,167.753,872.588,154.493z"/>
		<path display="inline" fill="#FFFFFF" d="M1433.35,154.33c-3.123,0-6.021,0-9.479,0c0,13.004,0,25.648,0,38.519
			c-1.582,0.257-2.652,0.423-3.725,0.606c-4.56,0.775-6.312-0.817-6.103-5.723c0.393-9.129,0.113-18.287,0.113-27.433
			c0-1.75,0-3.5,0-5.652c-3.483,0-6.368,0-9.638,0c0-2.597,0-4.782,0-7.339c9.412,0,18.938,0,28.828,0
			C1433.35,149.616,1433.35,151.78,1433.35,154.33z"/>
		<path display="inline" fill="#FFFFFF" d="M991.597,193.458c0-15.807,0-30.824,0-45.86c0.598-0.241,1.024-0.545,1.474-0.572
			c7.708-0.465,7.709-0.458,7.709,7.37c0.002,10.127,0,20.253,0,31.165c5.631,0,10.896,0,15.996,0
			c1.418,7.873,1.402,7.894-5.713,7.898C1004.714,193.461,998.365,193.458,991.597,193.458z"/>
		<path display="inline" fill="#FFFFFF" d="M1206.09,185.52c0,3.056,0,5.248,0,7.919c-7.899,0-15.539,0.106-23.169-0.14
			c-0.909-0.03-2.503-1.974-2.519-3.045c-0.174-13.385-0.185-26.774,0.023-40.159c0.019-1.062,1.806-2.606,3.064-3.014
			c1.616-0.524,3.533-0.127,5.975-0.127c0,12.833,0,25.451,0,38.567C1195.27,185.52,1200.434,185.52,1206.09,185.52z"/>
		<path display="inline" fill="#FFFFFF" d="M1024.56,357.736c-11.267-5.873-22.018-5.682-33.259-0.135
			c0-9.596-0.101-17.884,0.131-26.162c0.026-0.987,1.818-2.74,2.824-2.768c8.969-0.217,17.945-0.256,26.911,0.029
			c1.166,0.04,3.193,2.188,3.239,3.421C1024.701,340.094,1024.56,348.079,1024.56,357.736z M998.084,347.827
			c4.481,0,9.328,0.006,14.178-0.002c6.289-0.011,6.289-0.015,6.294-6.496c0.006-7.019,0.006-7.019-6.771-7.022
			c-1.305-0.002-2.607,0-3.915,0c-11.796,0-11.798,0-10.548,11.951C997.355,346.555,997.591,346.825,998.084,347.827z"/>
		<path display="inline" fill="#FFFFFF" d="M884.065,218.137c-3.221,0.147-6.104,0.281-9.616,0.444c0,12.714,0,25.202,0,38.005
			c-3.174,0-5.717,0-8.994,0c0-12.469,0-24.951,0-37.923c-3.693-0.197-6.707-0.358-10.073-0.537c0-2.303,0-4.472,0-6.978
			c9.593,0,18.976,0,28.686,0C884.065,213.43,884.065,215.486,884.065,218.137z"/>
		<path display="inline" fill="#FFFFFF" d="M747.875,334.148c0,5.301,0,9.801,0,15.023c5.604,0,11.204,0,17.017,0
			c0,2.268,0,3.816,0,5.689c-13.499,0-26.813,0-40.505,0c-0.094-1.666-0.186-3.217-0.309-5.4c5.769,0,11.229,0,17.302,0
			c0-4.646,0.196-8.701-0.156-12.707c-0.08-0.9-2.045-2.219-3.24-2.331c-3.385-0.317-6.817-0.11-10.629-0.11c0-1.953,0-3.61,0-5.524
			c11.906,0,23.754,0,35.872,0c0,1.795,0,3.349,0,5.36C758.221,334.148,753.371,334.148,747.875,334.148z"/>
		<path display="inline" fill="#FFFFFF" d="M1478.572,325.505c0,6.636,0,12.765,0,19.255c-12.159,0-24.198,0-37.041,0
			c0-5.752-0.075-11.57,0.107-17.38c0.021-0.649,1.513-1.786,2.333-1.795C1455.388,325.466,1466.805,325.505,1478.572,325.505z
			 M1472.94,331.607c-8.636,0-16.818,0-25.096,0c0,2.735,0,5.088,0,7.549c8.548,0,16.735,0,25.096,0
			C1472.94,336.516,1472.94,334.268,1472.94,331.607z"/>
		<path display="inline" fill="#FFFFFF" d="M1309.342,256.615c-3.457,0-6.162,0-9.118,0c0-15.264,0-30.23,0-45.375
			c0.781-0.153,1.391-0.359,2.009-0.383c7.107-0.267,7.108-0.258,7.109,7.027C1309.342,230.613,1309.342,243.344,1309.342,256.615z"
			/>
		<path display="inline" fill="#FFFFFF" d="M756.075,211.664c0.002,14.848,0.002,29.693,0.002,44.888c-3.021,0-5.827,0-9.158,0
			c0-10.296,0-20.237,0-30.178c0-2.78,0-5.562,0-8.342C746.922,210.07,748.074,209.27,756.075,211.664z"/>
		<path display="inline" fill="#FFFFFF" d="M705.948,193.222c-2.851,0-5.386,0-8.326,0c0-15.295,0-30.369,0-45.862
			c2.659,0,5.311,0,8.326,0C705.948,162.473,705.948,177.564,705.948,193.222z"/>
		<path display="inline" fill="#FFFFFF" d="M936.389,147.188c2.979,0,5.517,0,8.377,0c0,15.332,0,30.423,0,45.894
			c-2.672,0-5.329,0-8.377,0C936.389,177.878,936.389,162.796,936.389,147.188z"/>
		<path display="inline" fill="#FFFFFF" d="M1513.911,256.661c-2.924,0-5.469,0-8.351,0c0-15.164,0-30.111,0-45.451
			c2.629,0,5.288,0,8.351,0C1513.911,226.21,1513.911,241.129,1513.911,256.661z"/>
		<path display="inline" fill="#FFFFFF" d="M813.069,256.662c-2.874,0-5.418,0-8.349,0c0-15.17,0-30.098,0-45.438
			c2.684,0,5.336,0,8.349,0C813.069,226.201,813.069,241.126,813.069,256.662z"/>
		<path display="inline" fill="#FFFFFF" d="M989.599,323.171c0-2.185,0-3.622,0-5.812c6.113,0,12.099-0.131,18.075,0.057
			c2.894,0.089,4.54-0.803,5.338-3.682c1.039-3.752,2.396-7.414,3.74-11.484c1.5,0.408,2.982,0.811,5.073,1.38
			c-1.269,4.503-2.468,8.772-3.776,13.425c2.944,0.203,5.488,0.379,8.194,0.566c1.466,3.98,0.563,5.699-3.944,5.615
			C1011.552,323.036,1000.799,323.171,989.599,323.171z"/>
		<path display="inline" fill="#FFFFFF" d="M902.747,316.757c0.071,1.442,0.142,2.884,0.248,5.14
			c-3.896,0.845-7.93,1.718-12.343,2.672c-0.558-1.469-1.045-2.745-1.532-4.023c0.438,0.079,0.875,0.158,1.313,0.237
			c0.859-2.033,2.234-4.009,2.471-6.11c0.452-4.021,0.261-8.115,0.341-12.188c0.007-0.008-0.118,0.154-0.11,0.146
			c3.342-0.362,6.79-0.308,9.982-1.183c3.14-0.86,4.597,0.039,5.185,2.267c-6.035,7.347,1.77,11.681,2.747,17.466
			c-2.668,2.053-4.826,1.805-6.254-1.933c-0.381-0.988-1.262-1.782-1.912-2.665c-0.849-3.122-1.694-6.244-2.543-9.367
			c-0.659,0.047-1.32,0.092-1.979,0.139c-0.167,3.321-0.333,6.646-0.532,10.588C900.018,317.414,901.384,317.085,902.747,316.757z"
			/>
		<path display="inline" fill="#FFFFFF" d="M725.195,291.332c12.866,0,25.73,0,38.757,0c0,1.788,0,3.318,0,5.293
			c-12.521,0-24.755,0.109-36.977-0.178c-1.146-0.027-2.23-2.559-3.345-3.928C724.152,292.122,724.674,291.727,725.195,291.332z"/>
		<path display="inline" fill="#FFFFFF" d="M1011.868,294.262c4.579,0,8.938,0,13.46,0c0,1.942,0,3.494,0,5.275
			c-11.389,0-22.563,0-33.988,0c0-1.799,0-3.344,0-5.35c4.585,0,8.925,0,13.549,0c0.187-1.813,0.329-3.207,0.508-4.963
			c1.661-0.123,3.212-0.236,5.021-0.371C1010.875,290.563,1011.281,292.066,1011.868,294.262z"/>
		<path display="inline" fill="#FFFFFF" d="M853.918,327.594c1.065,0.203,2.619,0.496,5.534,1.047
			c-3.188,9.683-6.232,18.93-9.469,28.75c-3.13-1.195-5.002-1.912-6.146-2.351C847.203,345.87,850.43,337.096,853.918,327.594z"/>
		<path display="inline" fill="#FFFFFF" d="M745.278,298.811c1.475,0.883,2.831,1.697,4.175,2.504
			c-2.07,3.813-5.641,7.438-5.464,10.873c0.175,3.446,4.086,6.701,6.534,10.297c-1.438,1.121-2.671,2.076-4.162,3.234
			c-2.883-4.167-5.714-8.056-8.264-12.119c-0.521-0.828-0.366-2.548,0.155-3.471C740.324,306.469,742.668,302.962,745.278,298.811z"
			/>
		<path display="inline" fill="#FFFFFF" d="M729.641,312.195c2.269,3.433,4.507,6.813,6.995,10.578
			c-1.521,1.129-2.873,2.136-4.427,3.289c-2.631-4.217-5.229-8.11-7.484-12.195c-0.562-1.016-0.429-2.867,0.127-3.954
			c1.846-3.597,4.032-7.021,6.354-10.964c1.402,0.728,2.896,1.505,4.7,2.443C733.706,305.184,731.685,308.675,729.641,312.195z"/>
		<path display="inline" fill="#FFFFFF" d="M758.375,298.964c1.459,0.671,2.896,1.335,4.803,2.211
			c-1.957,3.815-3.78,7.37-5.723,11.154c2.197,3.103,4.515,6.373,6.961,9.831c-1.522,1.197-2.769,2.174-4.271,3.354
			c-2.758-4.004-5.501-7.756-7.935-11.699c-0.498-0.81-0.146-2.476,0.338-3.5C754.275,306.656,756.227,303.104,758.375,298.964z"/>
		<path display="inline" fill="#FFFFFF" d="M1675.563,183.341c3.569,0,5.96,0,8.355,0.006c2.94,10.373,0.093,18.568-6.965,20.032
			c-0.201-0.232-0.418-0.457-0.6-0.706c-2.604-3.54,6.015-4.894,1.595-9.456C1676.007,191.21,1676.351,186.988,1675.563,183.341z"/>
		<path display="inline" fill="#FFFFFF" d="M699.838,331.727c3.973-0.668,5.155,1.058,4.64,4.404
			c-0.669,4.354-1.481,8.694-1.96,13.069c-0.438,3.987-2.374,4.53-5.893,2.907C697.682,345.406,698.738,338.698,699.838,331.727z"/>
		<path display="inline" fill="#FFFFFF" d="M843.615,294.126c1.361-1.604,2.484-2.933,4.08-4.815
			c3.479,3.068,6.71,5.922,10.323,9.113c-1.574,1.676-2.854,3.038-4.349,4.631C850.326,300.087,847.21,297.316,843.615,294.126z"/>
		<path display="inline" fill="#FFFFFF" d="M721.534,331.18c0.82,5.305,1.563,10.115,2.384,15.422
			c-1.693,0.217-3.201,0.41-5.229,0.672c-0.767-4.932-1.484-9.535-2.298-14.752C718.034,332.093,719.635,331.676,721.534,331.18z"/>
		<path display="inline" fill="#FFFFFF" d="M856.752,315.875c-2.242,1.986-3.553,3.148-4.455,3.949
			c-3.145-2.879-6.078-5.57-9.426-8.635c1.47-1.272,2.891-2.506,4.904-4.252C850.674,309.822,853.51,312.646,856.752,315.875z"/>
		<path display="inline" fill="#FFFFFF" d="M1003.617,314.136c-2.051,0.544-3.414,0.905-5.211,1.382
			c-0.685-1.998-1.363-3.918-1.999-5.852c-0.592-1.809-1.132-3.632-1.809-5.818c1.803-0.518,3.295-0.943,5.242-1.504
			C1001.077,306.206,1002.241,309.84,1003.617,314.136z"/>
	</g>
	<g>
		<path fill="#00416F" d="M133.582,109.701c0-21.175,0-41.852,0-62.754c1.418-0.066,2.64-0.172,3.86-0.172
			c62.504-0.008,125.014-0.385,187.512,0.128c40.302,0.331,76.668,12.126,106.66,40.429c24.499,23.119,38.531,51.609,43.65,84.565
			c4.382,28.203,4.052,56.439-4.377,83.887c-17.354,56.506-55.631,90.409-113.475,101.79c-12.163,2.394-24.802,3.156-37.232,3.263
			c-44.125,0.379-88.255,0.149-132.383,0.14c-1.457,0-2.914-0.119-4.558-0.189c0-62.563,0-124.766,0-187.326
			c20.733,0,41.382,0,62.404,0c0,41.477,0,82.926,0,124.84c1.653,0.1,2.964,0.243,4.274,0.244
			c24.501,0.016,49.007,0.296,73.503-0.068c24.027-0.359,45.779-7.332,63.362-24.531c14.151-13.844,23.41-30.381,26.485-50.104
			c3.236-20.753,2.523-41.311-6.286-60.635c-14.748-32.354-40.366-49.876-75.759-52.996c-5.464-0.481-10.98-0.486-16.473-0.489
			c-58.63-0.032-117.259-0.02-175.89-0.02C137.156,109.701,135.445,109.701,133.582,109.701z"/>
		<path fill="#7D0021" d="M487.75,235.35c2.781-21.129,2.768-41.771,0.037-62.881c1.882,0,3.345,0,4.808,0
			c21.124,0,42.252,0.219,63.37-0.129c6.536-0.108,13.232-1.089,19.529-2.844c12.6-3.51,21.035-16.479,20.304-29.87
			c-0.796-14.545-10.19-26.082-23.729-28.512c-5.502-0.988-11.166-1.439-16.761-1.467c-28.747-0.141-57.496-0.089-86.245-0.022
			c-2.446,0.006-4.025-0.538-5.473-2.773c-17.277-26.659-40.576-46.158-69.944-58.358c-0.863-0.359-1.667-0.86-3.448-1.792
			c2.271,0,3.469,0,4.665,0c47.498-0.001,94.996-0.112,142.493,0.049c21.295,0.073,42.47,1.628,62.569,9.571
			c19.105,7.552,35.642,18.552,46.802,36.371c8.25,13.173,11.6,27.783,12.146,43.108c0.462,12.889,0.156,25.711-4.253,38.104
			c-3.954,11.116-10.318,20.737-17.869,29.743c2.902,2.66,5.917,5.098,8.555,7.889c12.637,13.373,18.806,29.595,20.077,47.695
			c1.561,22.209-1.864,43.47-14.689,62.222c-14.386,21.032-35.24,32.383-59.854,36.101c-15.979,2.414-32.312,3.238-48.495,3.375
			c-49.12,0.416-98.244,0.151-147.367,0.145c-1.177,0-2.353-0.104-3.62-0.717c4.013-1.869,8.077-3.639,12.031-5.627
			c24.784-12.461,44.716-30.394,59.868-53.592c1.583-2.424,3.2-3.221,6.016-3.216c32.621,0.052,65.243,0.017,97.864-0.138
			c3.962-0.02,7.98-0.578,11.869-1.391c14.771-3.096,24.012-15.293,23.771-31.065c-0.207-13.742-10.368-25.938-24.47-28.162
			c-8.341-1.315-16.894-1.64-25.358-1.739c-20.119-0.238-40.244-0.078-60.367-0.078C491.117,235.35,489.656,235.35,487.75,235.35z"
			/>
		<path fill="#00416F" d="M58.042,122.464c20.85,0,41.33,0,62.143,0c0,79.315,0,158.572,0,238.175c-20.563,0-41.215,0-62.143,0
			C58.042,281.346,58.042,202.079,58.042,122.464z"/>
		<path fill="#7D0021" d="M359.688,278.464c0-49.817,0-99.011,0-148.483c0.896,0.29,1.621,0.408,2.232,0.738
			c23.204,12.534,37.263,31.526,40.62,57.943c2.073,16.304,1.517,32.466-4.521,47.959c-6.956,17.854-18.77,31.631-35.81,40.708
			C361.573,277.667,360.895,277.925,359.688,278.464z"/>
		<path fill="#7D0021" d="M57.877,109.291c0-20.815,0-41.397,0-62.284c20.769,0,41.436,0,62.406,0c0,20.651,0,41.322,0,62.284
			C99.659,109.291,78.979,109.291,57.877,109.291z"/>
	</g>
</g>
<text transform="matrix(1 0 0 1 715.7341 295.1338)" display="none" font-family="'MicrosoftJhengHeiRegular'" font-size="220" letter-spacing="5">永續資訊資料庫研析網</text>
<g>
	<path d="M810.802,203.61c0,2.938-3.349,10.635-10.044,23.096c-6.697,12.461-15.576,23.67-26.641,33.623
		c-11.064,9.955-23.544,18.764-37.437,26.426l-7.305-10.313c34.732-18.477,57.256-41.857,67.568-70.146h-59.404v-11.709h73.262
		V203.61z M924.563,277.087l-7.949,9.453c-35.879-23.346-61.983-51.705-78.311-85.078v87.764c0,3.939-1.165,7.321-3.491,10.151
		c-2.328,2.828-4.817,4.654-7.466,5.479c-2.65,0.822-10.385,1.235-23.203,1.235c-5.086,0-9.92-0.145-14.502-0.43l-5.049-12.461
		c7.375,0.359,14.859,0.537,22.451,0.537c8.02,0,13.213-0.215,15.576-0.645s3.545-2.541,3.545-6.338V167.731h-62.949V156.13h75.088
		v13.643c4.512,16.186,10.527,29.363,18.047,39.531c25.422-18.047,43.899-35.127,55.43-51.24l9.023,8.164
		c-12.246,16.688-31.619,34.268-58.116,52.744C877.297,240.815,897.922,260.187,924.563,277.087z M868.166,136.472l-5.264,11.279
		c-17.475-8.594-42.826-16.9-76.055-24.922l5.479-10.313C821.185,118.819,846.467,126.804,868.166,136.472z"/>
	<path d="M977.973,254.636c-2.221,16.473-6.195,33.695-11.924,51.67l-10.313-3.438c5.227-14.752,9.201-31.617,11.924-50.596
		L977.973,254.636z M1027.708,236.804l-10.312,3.76c-0.359-2.434-1.039-5.441-2.041-9.023c-17.26,5.371-35.521,10.063-54.785,14.072
		l-3.008-10.527c13.678-15.324,26.066-32.477,37.168-51.455c-12.533,2.293-23.777,3.832-33.73,4.619l-2.363-9.883
		c12.174-17.402,23.311-39.424,33.408-66.064l10.098,4.834c-10.313,25.281-20.268,44.939-29.863,58.975
		c8.664-0.859,18.262-2.256,28.789-4.189c5.441-8.951,10.348-18.477,14.717-28.574l9.668,5.049
		c-14.754,30.938-32.406,58.867-52.959,83.789c13.176-2.793,26.461-6.301,39.854-10.527c-1.004-4.582-2.865-9.846-5.586-15.791
		l9.883-3.33C1020.797,212.349,1024.487,223.771,1027.708,236.804z M1001.713,298.679l-10.742,2.578
		c0.215-13.893-1.111-29.219-3.975-45.977l9.668-1.934C999.672,269.747,1001.354,284.858,1001.713,298.679z M1027.279,280.417
		l-9.882,3.33c-1.648-10.025-4.979-21.055-9.99-33.086l9.238-3.223C1021.871,258.468,1025.416,269.46,1027.279,280.417z
		 M1132.659,275.583h-63.594l5.908,7.197c-16.258,10.385-32.371,18.404-48.34,24.063l-7.089-8.164
		c15.753-5.801,31.437-13.498,47.05-23.096h-27.715v-68.857h93.779V275.583z M1147.806,135.612h-56.719v11.709h48.77v9.023h-106.885
		v-9.023h47.266v-11.709h-55.858v-9.238h55.858v-12.031h10.85v12.031h56.719V135.612z M1142.113,196.843h-113.545v-30.4h113.545
		V196.843z M1062.191,188.034v-12.568h-23.311v12.568H1062.191z M1122.025,226.706v-10.527h-72.295v10.527H1122.025z
		 M1122.025,246.472v-10.957h-72.295v10.957H1122.025z M1122.025,266.56v-11.064h-72.295v11.064H1122.025z M1097.21,188.034v-12.568
		h-24.385v12.568H1097.21z M1148.236,298.249l-6.123,9.023c-13.105-6.947-28.074-13.105-44.902-18.477l6.338-8.379
		C1119.159,284.858,1134.056,290.802,1148.236,298.249z M1131.263,188.034v-12.568h-23.74v12.568H1131.263z"/>
	<path d="M1341.187,275.368h-87.334l5.479,7.197c-22.703,11.459-46.766,19.836-72.188,25.137l-5.693-10.42
		c23.561-3.938,45.939-11.242,67.139-21.914h-34.16v-80.566h126.758V275.368z M1244.615,173.962h-61.553v-11.064h61.553V173.962z
		 M1242.896,134.323h-55.43v-10.527h55.43V134.323z M1329.8,217.683v-12.568h-103.662v12.568H1329.8z M1329.8,241.208v-13.643
		h-103.662v13.643H1329.8z M1329.8,264.948v-13.857h-103.662v13.857H1329.8z M1374.165,180.944l-4.834,10.742
		c-28.145-4.152-50.059-12.711-65.742-25.674c-12.605,12.104-29.398,20.447-50.381,25.029l-5.908-10.527
		c26.998-4.152,45.617-15.146,55.859-32.979l12.031,2.148c-0.43,1.791-2.113,4.656-5.049,8.594
		C1324.966,170.454,1346.306,178.009,1374.165,180.944z M1369.546,140.661c-7.449,10.527-14.324,18.836-20.625,24.922l-8.379-7.949
		c5.656-5.729,10.992-11.959,16.006-18.691h-80.459c-5.945,7.52-12.641,14.109-20.088,19.766l-7.627-7.627
		c12.604-9.453,23.238-22.379,31.904-38.779l10.742,3.76l-6.982,12.139h85.508V140.661z M1372.876,297.819l-5.264,10.098
		c-21.414-8.021-42.684-14.18-63.809-18.477l5.479-9.883C1332.126,284.214,1353.325,290.3,1372.876,297.819z"/>
	<path d="M1479.568,147.321h-73.047v-10.85h34.16c-2.006-5.441-5.193-12.031-9.561-19.766l9.99-4.834
		c4.367,7.734,8.164,15.936,11.387,24.6h27.07V147.321z M1473.23,179.44h-61.445v-10.85h61.445V179.44z M1472.585,210.915h-60.801
		v-10.42h60.801V210.915z M1472.585,302.868h-11.709v-13.213h-35.664v16.65h-11.602v-73.691h58.975V302.868z M1460.876,279.021
		v-35.557h-35.664v35.557H1460.876z M1604.714,256.677c-1.576,14.037-4.315,25.639-8.218,34.805
		c-3.904,9.166-8.325,13.75-13.267,13.75c-7.664,0-12.891-7.681-15.684-23.042s-4.189-28.126-4.189-38.296v-113.33h-43.936v69.072
		h34.697v10.527h-34.697v96.68h-11.494v-96.68h-25.459v-10.527h25.459v-69.072h-23.74v-10.527h90.449v116.123
		c0,18.906,1.128,33.123,3.384,42.646c2.256,9.525,3.884,14.287,4.888,14.287c1.002,0,2.863-4.654,5.586-13.965
		c2.721-9.309,4.547-18.869,5.479-28.682L1604.714,256.677z"/>
	<path d="M1792.187,275.368h-87.334l5.479,7.197c-22.703,11.459-46.766,19.836-72.188,25.137l-5.693-10.42
		c23.561-3.938,45.939-11.242,67.139-21.914h-34.16v-80.566h126.758V275.368z M1695.615,173.962h-61.553v-11.064h61.553V173.962z
		 M1693.896,134.323h-55.43v-10.527h55.43V134.323z M1780.8,217.683v-12.568h-103.662v12.568H1780.8z M1780.8,241.208v-13.643
		h-103.662v13.643H1780.8z M1780.8,264.948v-13.857h-103.662v13.857H1780.8z M1825.165,180.944l-4.834,10.742
		c-28.145-4.152-50.059-12.711-65.742-25.674c-12.605,12.104-29.398,20.447-50.381,25.029l-5.908-10.527
		c26.998-4.152,45.617-15.146,55.859-32.979l12.031,2.148c-0.43,1.791-2.113,4.656-5.049,8.594
		C1775.966,170.454,1797.306,178.009,1825.165,180.944z M1820.546,140.661c-7.449,10.527-14.324,18.836-20.625,24.922l-8.379-7.949
		c5.656-5.729,10.992-11.959,16.006-18.691h-80.459c-5.945,7.52-12.641,14.109-20.088,19.766l-7.627-7.627
		c12.604-9.453,23.238-22.379,31.904-38.779l10.742,3.76l-6.982,12.139h85.508V140.661z M1823.876,297.819l-5.264,10.098
		c-21.414-8.021-42.684-14.18-63.809-18.477l5.479-9.883C1783.126,284.214,1804.325,290.3,1823.876,297.819z"/>
	<path d="M1890.284,212.204c-5.156,25.066-11.961,45.727-20.41,61.982l-11.064-4.834c8.594-15.826,15.646-35.986,21.162-60.479
		L1890.284,212.204z M1947.325,196.306h-33.945v109.785h-11.387V196.306h-40.713v-10.527h40.713v-72.617h11.387v72.617h33.945
		V196.306z M1888.995,168.161l-10.957,4.404c-2.508-10.742-7.879-23.848-16.113-39.316l9.883-4.404
		C1880.115,143.599,1885.843,156.704,1888.995,168.161z M1948.4,246.257l-11.494,3.76c-1.719-9.953-6.268-22.486-13.643-37.598
		l10.205-3.545C1940.843,224.058,1945.822,236.519,1948.4,246.257z M1950.118,132.819c-4.727,16.258-10.063,29.971-16.006,41.143
		l-10.527-5.156c6.445-10.813,11.924-24.133,16.436-39.961L1950.118,132.819z M2050.45,246.257l-22.666,4.404v55.859h-11.172
		v-53.604L1948.4,265.7l-1.504-11.064l69.717-13.213V113.806h11.172v125.469l21.162-3.975L2050.45,246.257z M2000.714,219.401
		l-8.594,8.809c-7.449-11.1-19.443-23.346-35.986-36.738l8.271-8.057C1978.656,194.946,1990.759,206.94,2000.714,219.401z
		 M2004.474,160.104l-8.594,8.486c-8.881-10.025-20.662-20.051-35.342-30.078l7.627-8.164
		C1980.339,138.083,1992.443,148.003,2004.474,160.104z"/>
	<path d="M2274.876,144.206h-159.521v33.838c0,56.219-7.771,99.51-23.311,129.873l-10.313-7.305
		c5.943-9.953,11.1-23.918,15.469-41.895c4.367-17.975,6.553-45.367,6.553-82.178v-42.002h83.145
		c-1.504-3.723-4.297-9.668-8.379-17.832l9.883-4.189c3.008,4.727,6.588,12.068,10.742,22.021h75.732V144.206z M2275.521,281.276
		h-71.973v24.6h-11.172v-24.6h-72.617v-9.883h72.617v-15.469h-58.33v-64.668h58.33v-16.65h-67.354v-9.668h67.354v-13.428h11.172
		v13.428h66.924v9.668h-66.924v16.65h57.041v64.668h-57.041v15.469h71.973V281.276z M2192.376,218.542v-17.617h-47.051v17.617
		H2192.376z M2192.376,246.257V228.21h-47.051v18.047H2192.376z M2249.847,218.542v-17.617h-46.299v17.617H2249.847z
		 M2249.847,246.257V228.21h-46.299v18.047H2249.847z"/>
	<path d="M2382.857,135.612h-28.574c-3.438,19.48-8.416,37.455-14.932,53.926h38.672v98.076h-11.172v-10.742h-27.285v14.287h-11.064
		v-79.6c-4.082,6.66-8.523,12.533-13.32,17.617l-7.949-9.023c17.33-19.191,29.219-47.373,35.664-84.541h-31.904v-11.387h71.865
		V135.612z M2366.851,265.163v-63.701h-27.285v63.701H2366.851z M2500.376,204.685h-28.789v101.406h-11.494V204.685h-34.697
		c0,27.645-3.008,48.807-9.023,63.486c-6.016,14.682-13.787,27.32-23.311,37.92l-9.561-7.842
		c11.172-11.672,19.084-24.277,23.74-37.813c4.654-13.535,6.803-32.119,6.445-55.752h-25.566v-10.957h25.566v-63.164h-22.021
		v-11.387h104.521v11.387h-24.6v63.164h28.789V204.685z M2460.093,193.728v-63.164h-34.697v63.164H2460.093z"/>
	<path d="M2619.421,216.608l-7.734,9.238c-7.52-10.67-16.4-20.66-26.641-29.971v110.215h-11.387V190.397
		c-9.525,22.273-21.199,42.289-35.02,60.049l-5.908-11.602c14.465-18.117,27.822-42.395,40.068-72.832h-35.879v-11.279h36.738
		v-40.713h11.387v40.713h31.904v11.279h-31.904v15.146C2599.941,194.409,2611.4,206.226,2619.421,216.608z M2726.306,195.661
		h-34.482v110.859h-11.709V195.661h-42.002c-1.434,27.93-4.53,50.042-9.292,66.333c-4.764,16.293-11.942,31.528-21.538,45.708
		l-9.238-7.734c19.049-27.07,28.574-64.023,28.574-110.859v-52.852c36.809-3.723,66.242-10.67,88.301-20.84l7.842,9.453
		c-21.699,9.238-49.916,16.258-84.648,21.055v38.564h88.193V195.661z"/>
	<path d="M2782.616,254.851c-2.508,18.334-6.625,35.736-12.354,52.207l-10.957-4.834c5.371-13.105,9.703-29.611,12.998-49.521
		L2782.616,254.851z M2836.542,240.993l-10.527,3.545c-0.789-4.01-1.898-8.199-3.33-12.568
		c-22.201,6.16-41.717,10.779-58.545,13.857l-3.545-12.246c16.184-14.537,30.113-31.188,41.787-49.951
		c-19.336,3.152-31.654,5.049-36.953,5.693l-3.008-10.957c13.893-16.9,25.674-38.242,35.342-64.023l10.635,3.438
		c-7.664,20.625-17.939,40.141-30.83,58.545c9.811-0.787,20.373-2.326,31.689-4.619c5.801-9.238,10.92-18.619,15.361-28.145
		l10.42,4.189c-18.549,36.596-37.563,64.525-57.041,83.789c12.031-1.861,25.744-5.084,41.143-9.668
		c-1.791-5.441-3.76-10.42-5.908-14.932l9.883-3.545C2828.7,214.927,2833.175,227.458,2836.542,240.993z M2810.331,298.034
		l-11.387,2.148c-0.645-14.25-2.65-29.504-6.016-45.762l10.635-1.719C2806.929,266.739,2809.185,281.851,2810.331,298.034z
		 M2836.113,287.829l-10.527,3.76c-1.219-10.455-4.404-23.561-9.561-39.316l10.42-3.33
		C2831.241,262.979,2834.464,275.942,2836.113,287.829z M2947.187,290.3c0,3.725-1.254,7.071-3.76,10.044
		c-2.508,2.971-5.443,4.797-8.809,5.479c-3.367,0.68-10.027,0.841-19.98,0.483l-4.834-12.031c4.654,0.145,8.664,0.215,12.031,0.215
		c6.588,0,10.598-0.43,12.031-1.289c1.432-0.859,2.148-2.398,2.148-4.619V130.993h-83.467v175.098h-11.172v-185.84h105.811V290.3z
		 M2929.57,185.778h-70.576v-10.742h17.617c-2.363-8.664-5.98-17.975-10.85-27.93l10.42-4.189
		c4.512,9.74,8.594,20.447,12.246,32.119h12.354c5.156-9.166,10.061-20.016,14.717-32.549l10.098,3.975
		c-2.006,6.088-6.088,15.613-12.246,28.574h16.221V185.778z M2929.57,225.847h-47.051v32.549c0,3.797,1.754,5.693,5.264,5.693
		h38.779v10.313h-39.854c-10.242,0-15.361-5.264-15.361-15.791v-32.764h-12.354v-10.527h34.268
		c-1.719-5.441-4.512-12.139-8.379-20.088l10.85-3.76c2.506,5.443,5.656,13.393,9.453,23.848h24.385V225.847z"/>
</g>
</svg>
